<svg id="XMLID_228_" xmlns="http://www.w3.org/2000/svg" width="17.942" height="21.955" viewBox="0 0 17.942 21.955">
  <path id="XMLID_229_" d="M28.8,75.185c-1.856,3.221-.676,8.109,1.376,11.072,1.025,1.482,2.062,2.812,3.483,2.812l.081,0a4.3,4.3,0,0,0,1.616-.431,4.426,4.426,0,0,1,1.915-.454,4.162,4.162,0,0,1,1.822.439,3.861,3.861,0,0,0,1.746.419c1.6-.03,2.583-1.465,3.45-2.731a12.106,12.106,0,0,0,1.512-3.1l.006-.02a.18.18,0,0,0-.1-.221l-.013-.006a4.587,4.587,0,0,1-2.78-4.2,4.722,4.722,0,0,1,2.231-3.947l.018-.011a.18.18,0,0,0,.051-.253,5.193,5.193,0,0,0-4.084-2.218c-.116-.012-.236-.017-.356-.017a7.12,7.12,0,0,0-2.563.64,4.121,4.121,0,0,1-1.228.367,4.018,4.018,0,0,1-1.27-.371,6.155,6.155,0,0,0-2.239-.569h-.057A5.489,5.489,0,0,0,28.8,75.185Z" transform="translate(-27.875 -67.114)" fill="#fff"/>
  <path id="XMLID_230_" d="M153.737,0a5.013,5.013,0,0,0-3.309,1.7,4.7,4.7,0,0,0-1.189,3.482.18.18,0,0,0,.164.156c.077.006.155.009.233.009a4.24,4.24,0,0,0,3.124-1.6A4.952,4.952,0,0,0,153.923.16.181.181,0,0,0,153.737,0Z" transform="translate(-140.476 0)" fill="#fff"/>
</svg>
