<svg xmlns="http://www.w3.org/2000/svg" width="29.416" height="29.416" viewBox="0 0 29.416 29.416">
  <path id="Path_2238" data-name="Path 2238" d="M1001.415,67.493a2.439,2.439,0,0,0-2.318-1.648h-4.088v-3.27h-9.8v3.27h-4.088a2.46,2.46,0,0,0-2.319,1.648l-3.4,9.791V90.356a1.642,1.642,0,0,0,1.635,1.635h1.635a1.642,1.642,0,0,0,1.632-1.635V88.721h19.612v1.635a1.641,1.641,0,0,0,1.632,1.635h1.634a1.642,1.642,0,0,0,1.636-1.635V77.283Zm-20.3,16.33a2.452,2.452,0,1,1,2.453-2.456,2.452,2.452,0,0,1-2.453,2.456m17.979,0a2.452,2.452,0,1,1,2.449-2.456,2.452,2.452,0,0,1-2.449,2.456m-20.427-8.175,2.448-7.354H999.1l2.449,7.354Z" transform="translate(-975.399 -62.575)" fill="#262626"/>
</svg>
