<svg xmlns="http://www.w3.org/2000/svg" width="28.428" height="34.427" viewBox="0 0 28.428 34.427">
  <g id="Group_2271" data-name="Group 2271" transform="translate(-18.829 -15.362)">
    <path id="Path_105" data-name="Path 105" d="M1589.372,642.645H1563.5a1.286,1.286,0,0,0-1.28,1.291V675.78a1.285,1.285,0,0,0,1.28,1.291h25.867a1.286,1.286,0,0,0,1.281-1.291V643.936a1.286,1.286,0,0,0-1.281-1.291m-22.475,4.476a.46.46,0,0,1,.457-.461h18.17a.46.46,0,0,1,.457.461v10.814a.459.459,0,0,1-.457.461h-18.17a.459.459,0,0,1-.457-.461Zm7.094,25.378a.46.46,0,0,1-.458.461H1568.5a.46.46,0,0,1-.458-.461v-7.874a.46.46,0,0,1,.458-.461h5.037a.46.46,0,0,1,.458.461Zm1.745-8.619a.46.46,0,0,1-.458.461h-.556a.459.459,0,0,1-.457-.461v-.244h-6.484v.244a.459.459,0,0,1-.457.461h-.565a.459.459,0,0,1-.457-.461v-1.269a.459.459,0,0,1,.457-.461h8.519a.46.46,0,0,1,.458.461Zm3.533,8.963a.318.318,0,0,1-.317.32H1577.1a.318.318,0,0,1-.317-.32v-1.868a.318.318,0,0,1,.317-.32h1.854a.318.318,0,0,1,.317.32Zm0-3.683a.318.318,0,0,1-.317.32H1577.1a.318.318,0,0,1-.317-.32v-1.869a.318.318,0,0,1,.317-.318h1.854a.318.318,0,0,1,.317.318Zm0-3.682a.317.317,0,0,1-.317.319H1577.1a.317.317,0,0,1-.317-.319v-1.868a.317.317,0,0,1,.317-.319h1.854a.317.317,0,0,1,.317.319Zm3.654,7.365a.319.319,0,0,1-.317.32h-1.854a.318.318,0,0,1-.317-.32v-1.868a.318.318,0,0,1,.317-.32h1.854a.319.319,0,0,1,.317.32Zm0-3.683a.319.319,0,0,1-.317.32h-1.854a.318.318,0,0,1-.317-.32v-1.869a.318.318,0,0,1,.317-.318h1.854a.319.319,0,0,1,.317.318Zm0-3.682a.318.318,0,0,1-.317.319h-1.854a.318.318,0,0,1-.317-.319v-1.868a.317.317,0,0,1,.317-.319h1.854a.318.318,0,0,1,.317.319Zm3.653,7.365a.318.318,0,0,1-.317.32H1584.4a.318.318,0,0,1-.317-.32v-1.868a.318.318,0,0,1,.317-.32h1.853a.319.319,0,0,1,.317.32Zm0-3.683a.319.319,0,0,1-.317.32H1584.4a.318.318,0,0,1-.317-.32v-1.869a.318.318,0,0,1,.317-.318h1.853a.319.319,0,0,1,.317.318Zm0-3.682a.318.318,0,0,1-.317.319H1584.4a.318.318,0,0,1-.317-.319v-1.868a.318.318,0,0,1,.317-.319h1.853a.318.318,0,0,1,.317.319Z" transform="translate(-1543.396 -627.283)" fill="#262626"/>
    <path id="Path_106" data-name="Path 106" d="M1573.308,660.046h.843a.307.307,0,0,0,.3-.224l.344-1.243h1.531l.376,1.249a.307.307,0,0,0,.294.218h.9a.306.306,0,0,0,.293-.4l-1.627-5.247a.306.306,0,0,0-.293-.215h-1.349a.305.305,0,0,0-.292.217l-1.6,5.246a.307.307,0,0,0,.046.272.311.311,0,0,0,.247.124m2.023-3.7c.056-.2.109-.436.161-.666.016-.066.029-.13.043-.192.071.284.15.6.228.857l.33,1.124h-1.076Z" transform="translate(-1547.962 -632.043)" fill="#262626"/>
    <path id="Path_107" data-name="Path 107" d="M1581.39,655.414h1.228v4.326a.307.307,0,0,0,.307.306h.826a.307.307,0,0,0,.307-.306v-4.326h1.254a.307.307,0,0,0,.307-.306v-.615a.307.307,0,0,0-.307-.307h-3.923a.306.306,0,0,0-.307.307v.615a.306.306,0,0,0,.307.306" transform="translate(-1551.346 -632.043)" fill="#262626"/>
    <path id="Path_108" data-name="Path 108" d="M1589.772,660.046h.72a.305.305,0,0,0,.306-.292l.092-1.943c.028-.468.049-1.007.068-1.528,0-.105.008-.209.012-.314.116.557.262,1.16.417,1.718l.563,2.041a.306.306,0,0,0,.3.226h.657a.307.307,0,0,0,.293-.216l.643-2.063c.188-.571.374-1.2.527-1.782.006.7.028,1.369.048,1.9l.075,1.961a.307.307,0,0,0,.307.294h.789a.306.306,0,0,0,.306-.323l-.288-5.246a.306.306,0,0,0-.306-.29H1594a.306.306,0,0,0-.292.213l-.557,1.734,0,.008c-.179.609-.352,1.28-.481,1.8-.105-.512-.245-1.09-.433-1.791l0-.007-.51-1.737a.305.305,0,0,0-.294-.221h-1.325a.307.307,0,0,0-.306.287l-.335,5.247a.306.306,0,0,0,.306.326" transform="translate(-1554.85 -632.043)" fill="#262626"/>
  </g>
</svg>
