<svg xmlns="http://www.w3.org/2000/svg" width="28.182" height="32.851" viewBox="0 0 28.182 32.851">
  <g id="Group_2266" data-name="Group 2266" transform="translate(-18.484 -16.174)">
    <path id="Path_2137" data-name="Path 2137" d="M692.734,694.363h0a1.765,1.765,0,0,1,1.765,1.765h0a1.765,1.765,0,0,1-3.53,0h0a1.765,1.765,0,0,1,1.765-1.765" transform="translate(-672.485 -648.867)" fill="#262626"/>
    <rect id="Rectangle_1029" data-name="Rectangle 1029" width="9.357" height="11.354" transform="translate(24.136 20.839)" fill="#262626"/>
    <rect id="Rectangle_1030" data-name="Rectangle 1030" width="1.872" height="7.61" transform="translate(39.158 20.832)" fill="#262626"/>
    <path id="Path_2138" data-name="Path 2138" d="M710.028,674.776h-9.357v5.614h9.357Zm-1.871,3.743h-5.614v-1.871h5.614Z" transform="translate(-676.535 -640.661)" fill="#262626"/>
    <path id="Path_2139" data-name="Path 2139" d="M690.969,645.556v26.482h28.072V645.556a1.714,1.714,0,0,0-1.715-1.715H692.684a1.715,1.715,0,0,0-1.715,1.715m16.844,23.675h-13.1V646.649h13.1Zm7.486-7.487h-5.614v-1.871H715.3Zm0-3.742h-5.614V646.649H715.3Z" transform="translate(-672.43 -627.666)" fill="#262626"/>
    <path id="Path_2140" data-name="Path 2140" d="M735.141,694.363h0a1.765,1.765,0,0,1,1.765,1.765h0a1.765,1.765,0,0,1-3.53,0h0a1.765,1.765,0,0,1,1.765-1.765" transform="translate(-690.239 -648.867)" fill="#262626"/>
  </g>
</svg>
