<svg xmlns="http://www.w3.org/2000/svg" width="31.416" height="31.403" viewBox="0 0 31.416 31.403">
  <g id="Group_2269" data-name="Group 2269" transform="translate(-16.251 -16.592)">
    <path id="Path_149" data-name="Path 149" d="M1291.981,644.537h-29.428a1,1,0,0,0-.988.987v29.429a.988.988,0,0,0,.988.987h29.428a.992.992,0,0,0,1-.987V645.524a1.008,1.008,0,0,0-1-.987m-24.954,3.342h20.11a1.7,1.7,0,0,1,1.7,1.7v11.454a1.7,1.7,0,0,1-1.7,1.7h-20.11a1.7,1.7,0,0,1-1.7-1.7V649.575a1.7,1.7,0,0,1,1.7-1.7m9.652,24.617h-9.605a1.7,1.7,0,0,1-1.7-1.7v-4.15a1.7,1.7,0,0,1,1.7-1.7h9.605a1.7,1.7,0,0,1,1.7,1.7v4.15a1.7,1.7,0,0,1-1.7,1.7m12.273-3.089h-1.082a.378.378,0,0,0-.353.266,2.579,2.579,0,0,1-4.816-.028.365.365,0,0,0-.349-.239h-1.341a.376.376,0,0,1-.375-.376v-3.714a.375.375,0,0,1,.375-.376h7.941a.375.375,0,0,1,.375.376v3.714a.375.375,0,0,1-.375.376" transform="translate(-1245.314 -627.945)" fill="#262626"/>
    <path id="Path_150" data-name="Path 150" d="M1277,659.5c0-.086.022-.194.138-.186.135.007.1.14.1.224v.433h.23v-.493c0-.08.049-.174.146-.162s.1.09.1.166v.484h.229v-.574a.375.375,0,0,0-.008-.08.231.231,0,0,0-.227-.2.26.26,0,0,0-.265.122.3.3,0,0,0-.211-.122.294.294,0,0,0-.23.131v-.129l-.222,0v.854H1277Z" transform="translate(-1251.745 -634.113)" fill="#262626"/>
    <path id="Path_151" data-name="Path 151" d="M1279.838,665.656a1.288,1.288,0,0,0,1.422-.1l-.5-.576a.308.308,0,0,1-.282.149c-.246,0-.369-.162-.369-.488a.545.545,0,0,1,.092-.324.331.331,0,0,1,.3-.159.38.38,0,0,1,.122.017.216.216,0,0,1,.179.218v.009h-.388c-.076,0-.117.069-.117.205s.041.2.117.2h1.277v-.046a1.223,1.223,0,0,0-.326-.873,1.174,1.174,0,0,0-.9-.36,1.211,1.211,0,0,0-.859.343,1.081,1.081,0,0,0-.215,1.346,1.122,1.122,0,0,0,.446.442" transform="translate(-1252.78 -635.958)" fill="#262626"/>
    <rect id="Rectangle_100" data-name="Rectangle 100" width="0.863" height="3.051" transform="translate(25.327 26.751)" fill="#262626"/>
    <path id="Path_152" data-name="Path 152" d="M1276.363,659.379a.143.143,0,0,0,.142-.142.142.142,0,0,0-.284,0,.142.142,0,0,0,.142.142" transform="translate(-1251.516 -634.107)" fill="#262626"/>
    <path id="Path_153" data-name="Path 153" d="M1303.1,663.818l.519,1.352h.932l-.585-1.417.421-.761h-.895l-.392.688V662.12h-.863v3.051h.863Z" transform="translate(-1262.404 -635.369)" fill="#262626"/>
    <path id="Path_154" data-name="Path 154" d="M1285.017,665.277h.077l.046,0v-.882h-.054c-.224,0-.332-.119-.332-.358v-.048l0-.03h.382v-.919h-.385v-.813h-.883V664.1a1.164,1.164,0,0,0,.317.855,1.058,1.058,0,0,0,.828.325" transform="translate(-1254.718 -635.412)" fill="#262626"/>
    <path id="Path_155" data-name="Path 155" d="M1298.538,665.277h.079l.044,0v-.882h-.054c-.222,0-.332-.119-.332-.358v-.048l0-.03h.382v-.919h-.386v-.813h-.882V664.1a1.157,1.157,0,0,0,.319.855,1.052,1.052,0,0,0,.826.325" transform="translate(-1260.38 -635.412)" fill="#262626"/>
    <path id="Path_156" data-name="Path 156" d="M1276.508,659.6a.172.172,0,0,1-.222,0v.572h.222Z" transform="translate(-1251.543 -634.317)" fill="#262626"/>
    <rect id="Rectangle_101" data-name="Rectangle 101" width="0.863" height="2.178" transform="translate(38.593 27.626)" fill="#262626"/>
    <path id="Path_157" data-name="Path 157" d="M1293.794,665.783l.172-.008h.013v-.847c-.019.008-.035.012-.045.017a.535.535,0,0,1-.127.02.341.341,0,0,1-.241-.089.3.3,0,0,1-.095-.227.284.284,0,0,1,.1-.222.324.324,0,0,1,.235-.093.3.3,0,0,1,.3.188,1.036,1.036,0,0,1,.047.368v.873h.863v-.869a1.887,1.887,0,0,0-.009-.232,1.355,1.355,0,0,0-.133-.5,1.057,1.057,0,0,0-.43-.468,1.273,1.273,0,0,0-.643-.166,1.2,1.2,0,0,0-.85.33,1.089,1.089,0,0,0,0,1.6,1.122,1.122,0,0,0,.844.328" transform="translate(-1258.371 -635.959)" fill="#262626"/>
    <path id="Path_158" data-name="Path 158" d="M1287.368,664.676a.593.593,0,0,1,.028-.215.168.168,0,0,1,.172-.1.17.17,0,0,1,.173.1.567.567,0,0,1,.028.215v1.087h.818v-1.087a.6.6,0,0,1,.026-.215.171.171,0,0,1,.173-.1.169.169,0,0,1,.172.1.6.6,0,0,1,.028.215v1.087h.822v-1.335a.885.885,0,0,0-.2-.637.913.913,0,0,0-.69-.265.877.877,0,0,0-.746.338.848.848,0,0,0-.746-.338.879.879,0,0,0-.749.338.824.824,0,0,0-.133.5v1.4h.819Z" transform="translate(-1255.835 -635.959)" fill="#262626"/>
    <path id="Path_159" data-name="Path 159" d="M1272.831,659.4a.589.589,0,0,1-.122.06.609.609,0,0,0,.122-.023.66.66,0,0,0,.123-.052.544.544,0,0,0,.216-.224.191.191,0,0,0,0-.207c-.035-.043-.107-.063-.216-.041a.922.922,0,0,0-.118.034.448.448,0,0,1,.118,0c.173.035.14.208,0,.352a.661.661,0,0,1-.123.1" transform="translate(-1250.045 -634.029)" fill="#262626"/>
    <rect id="Rectangle_102" data-name="Rectangle 102" width="0.863" height="2.178" transform="translate(24.096 27.626)" fill="#262626"/>
    <path id="Path_160" data-name="Path 160" d="M1270.923,659.97a.27.27,0,0,0,.287-.242.263.263,0,0,0-.093-.213.233.233,0,0,0,.065-.182c-.02-.159-.143-.218-.325-.218h-.335v.855h.4Zm-.2-.686.137,0h.042c.073,0,.1.033.1.091s-.032.069-.086.072h-.192Zm0,.33h.137l.056,0c.081,0,.11.038.108.1s-.036.08-.094.082h-.208Z" transform="translate(-1249.129 -634.114)" fill="#262626"/>
    <path id="Path_161" data-name="Path 161" d="M1275.607,661.847a.425.425,0,0,0-.31.119.4.4,0,0,0-.127.3.382.382,0,0,0,.127.291.467.467,0,0,0,.623,0,.4.4,0,0,0,0-.587.44.44,0,0,0-.313-.119" transform="translate(-1251.075 -635.259)" fill="#262626"/>
    <path id="Path_162" data-name="Path 162" d="M1271.095,665.058a1.236,1.236,0,0,0,.647.172,1.21,1.21,0,0,0,.858-.343,1.063,1.063,0,0,0,.346-.8,1.176,1.176,0,0,0-1.2-1.159l-.11.009-.095,0v.865a.742.742,0,0,1,.113-.039.213.213,0,0,1,.079-.009.33.33,0,0,1,.24.095.326.326,0,0,1,.1.235.287.287,0,0,1-.1.222.325.325,0,0,1-.235.1.3.3,0,0,1-.3-.2,1.178,1.178,0,0,1-.046-.373V662.12h-.863v1.711a1.743,1.743,0,0,0,.142.753,1.1,1.1,0,0,0,.43.473" transform="translate(-1249.126 -635.369)" fill="#262626"/>
    <path id="Path_163" data-name="Path 163" d="M1274.538,659.76h-.369V659.1l-.242,0v.858h.612Z" transform="translate(-1250.555 -634.109)" fill="#262626"/>
    <path id="Path_164" data-name="Path 164" d="M1275.43,659.97a.27.27,0,0,0,.287-.242.267.267,0,0,0-.092-.213.235.235,0,0,0,.064-.182c-.02-.159-.143-.218-.325-.218h-.335v.855h.4Zm-.2-.686.138,0h.042c.073,0,.1.033.1.091s-.033.069-.087.072h-.192Zm0,.33h.138l.056,0c.081,0,.11.038.108.1s-.035.08-.093.082h-.209Z" transform="translate(-1251.016 -634.114)" fill="#262626"/>
    <path id="Path_165" data-name="Path 165" d="M1271.9,660.032a.738.738,0,0,0,.528.1c.041-.008.082-.017.123-.028a.963.963,0,0,0,.216-.1.825.825,0,0,0,.217-.2,1.052,1.052,0,0,1-.217.127.927.927,0,0,1-.216.058.7.7,0,0,1-.123.007c-.419-.009-.69-.373-.242-.748-.485.2-.52.617-.285.789" transform="translate(-1249.648 -634.168)" fill="#262626"/>
    <path id="Path_166" data-name="Path 166" d="M1300.549,662.672a.439.439,0,0,0,.313-.119.4.4,0,0,0,0-.587.441.441,0,0,0-.313-.119.426.426,0,0,0-.31.119.4.4,0,0,0-.127.3.38.38,0,0,0,.127.291.441.441,0,0,0,.31.119" transform="translate(-1261.52 -635.258)" fill="#262626"/>
    <path id="Path_167" data-name="Path 167" d="M1272.356,659.745a.45.45,0,0,0,.289.115.612.612,0,0,0,.123,0,.656.656,0,0,0,.216-.059.434.434,0,0,0,.222-.211.636.636,0,0,1-.222.129.517.517,0,0,1-.216.023.5.5,0,0,1-.123-.028c-.229-.09-.334-.348-.037-.589-.372.177-.41.473-.252.621" transform="translate(-1249.859 -634.118)" fill="#262626"/>
  </g>
</svg>
