<svg xmlns="http://www.w3.org/2000/svg" width="20.499" height="37.095" viewBox="0 0 20.499 37.095">
  <g id="Group_2267" data-name="Group 2267" transform="translate(-21.748 -15.563)">
    <path id="Path_2227" data-name="Path 2227" d="M986.524,656.67v21.3a2.023,2.023,0,0,0,4.046,0v-21.3c.607-.212,2.889-2.245,2.889-2.9v-8.566a1.036,1.036,0,0,0-1.023-1.023,1.04,1.04,0,0,0-1.027,1.023v6.662a1.024,1.024,0,0,1-2.048,0v-6.662a1.025,1.025,0,0,0-2.05,0v6.662a1.024,1.024,0,0,1-2.048,0v-6.662a1.025,1.025,0,0,0-2.05,0v8.566c0,.653,2.7,2.684,3.31,2.9" transform="translate(-961.465 -627.777)" fill="#262626"/>
    <path id="Path_2228" data-name="Path 2228" d="M992.436,706.1l-.027,0-.026,0Z" transform="translate(-965.322 -653.739)" fill="#262626"/>
    <path id="Path_2229" data-name="Path 2229" d="M1007.15,661.174h2.325v16.6a2.023,2.023,0,0,0,4.047,0V643.753a.982.982,0,0,0-.3-.72.993.993,0,0,0-.72-.3h-.736a5.14,5.14,0,0,0-5.125,5.124V660.66a.486.486,0,0,0,.154.362.491.491,0,0,0,.359.152" transform="translate(-971.274 -627.166)" fill="#262626"/>
  </g>
</svg>
