<svg id="google-play" xmlns="http://www.w3.org/2000/svg" width="15.995" height="18.11" viewBox="0 0 15.995 18.11">
  <path id="Path_2242" data-name="Path 2242" d="M32.314.231A1.571,1.571,0,0,0,30.807.159l8.131,8.148L41.6,5.636ZM30.06.913a1.657,1.657,0,0,0-.158.707v14.9a1.593,1.593,0,0,0,.159.7l8.128-8.166Zm8.879,8.9-8.118,8.156a1.593,1.593,0,0,0,.673.143,1.577,1.577,0,0,0,.82-.221L41.6,12.476Zm6.193-2.116-.01-.006-2.577-1.5-2.857,2.87,2.859,2.865,2.585-1.507a1.592,1.592,0,0,0,0-2.721Z" transform="translate(-29.902 0)" fill="#fff"/>
</svg>
