<svg xmlns="http://www.w3.org/2000/svg" width="31.276" height="22.836" viewBox="0 0 31.276 22.836">
  <g id="Group_2268" data-name="Group 2268" transform="translate(-17.433 -22.347)">
    <path id="Path_2235" data-name="Path 2235" d="M1291.86,70.837h-22.812a.959.959,0,0,0-.959.96V84.018a3.57,3.57,0,0,0,3.571,3.57h14.612a3.57,3.57,0,0,0,3.571-3.57V82.485h2.017a4.24,4.24,0,0,0,4.24-4.24V75.076a4.245,4.245,0,0,0-4.24-4.24m.764,7.409a.766.766,0,0,1-.764.766h-2.017v-4.7h2.017a.766.766,0,0,1,.764.766Z" transform="translate(-1247.392 -48.489)" fill="#262626"/>
    <path id="Path_2236" data-name="Path 2236" d="M1290.615,103.8h-27.294a.7.7,0,0,0-.7.7,3.216,3.216,0,0,0,3.212,3.212H1288.1a3.216,3.216,0,0,0,3.213-3.212.7.7,0,0,0-.7-.7" transform="translate(-1245.189 -62.531)" fill="#262626"/>
  </g>
</svg>
