<svg xmlns="http://www.w3.org/2000/svg" width="24.053" height="38.862" viewBox="0 0 24.053 38.862">
  <g id="Group_2263" data-name="Group 2263" transform="translate(-20.549 -13.115)">
    <path id="Path_2151" data-name="Path 2151" d="M431.208,58.314a1.4,1.4,0,1,0-1.4-1.4,1.4,1.4,0,0,0,1.4,1.4" transform="translate(-396.548 -42.402)" fill="#262626"/>
    <path id="Path_2152" data-name="Path 2152" d="M424.05,58.314a1.4,1.4,0,1,0-1.4-1.4,1.4,1.4,0,0,0,1.4,1.4" transform="translate(-393.559 -42.402)" fill="#262626"/>
    <path id="Path_2153" data-name="Path 2153" d="M425.71,108.032a4.963,4.963,0,0,1-.563.034h-1.939l.871,1.293h-9.9l.871-1.293H413.11a4.972,4.972,0,0,1-.564-.034l-5.444,8.082h2.526l.9-1.343h17.193l.9,1.343h2.526Zm-13.767,4.644.823-1.222H425.49l.823,1.222Z" transform="translate(-386.553 -64.137)" fill="#262626"/>
    <path id="Path_2154" data-name="Path 2154" d="M429.543,63.09a4.351,4.351,0,0,0-3.081-1.282H414.425a4.377,4.377,0,0,0-4.364,4.363V82.81a4.376,4.376,0,0,0,4.364,4.364h12.037c.107,0,.214,0,.319-.012a4.377,4.377,0,0,0,4.044-4.353V66.171a4.348,4.348,0,0,0-1.282-3.081m-11.568.346a.524.524,0,0,1,.524-.523h3.934a.523.523,0,0,1,.523.523v1a.524.524,0,0,1-.523.524H418.5a.526.526,0,0,1-.524-.524Zm-4.949,4.626a1.919,1.919,0,0,1,1.92-1.92h11a1.92,1.92,0,0,1,1.92,1.92v3.923a1.921,1.921,0,0,1-1.92,1.92h-11a1.921,1.921,0,0,1-1.92-1.92Zm1.849,16.193a2.007,2.007,0,1,1,2.007-2.007,2.007,2.007,0,0,1-2.007,2.007m11.138,0a2.007,2.007,0,1,1,2.007-2.007,2.007,2.007,0,0,1-2.007,2.007" transform="translate(-387.868 -44.557)" fill="#262626"/>
  </g>
</svg>
