<svg xmlns="http://www.w3.org/2000/svg" width="32.042" height="35.116" viewBox="0 0 32.042 35.116">
  <g id="Group_2261" data-name="Group 2261" transform="translate(-17.02 -15.473)">
    <path id="Path_2160" data-name="Path 2160" d="M159.8,69.885l.006-.376a.156.156,0,0,0-.12-.09h-2.482v.466h2.075a.1.1,0,0,1,.056.063v1.078h.466Z" transform="translate(-111.707 -48.227)" fill="#262626"/>
    <path id="Path_2161" data-name="Path 2161" d="M110.037,69.419a.159.159,0,0,0-.121.09l.007.376v1.142h.466V69.948a.1.1,0,0,1,.056-.063h2.091v-.466Z" transform="translate(-91.953 -48.227)" fill="#262626"/>
    <path id="Path_2162" data-name="Path 2162" d="M109.207,73.91v-1.6h-.314a.587.587,0,0,0-.586.585v4.216a.588.588,0,0,0,.586.586h1.054a.587.587,0,0,0,.585-.586V72.9a.587.587,0,0,0-.585-.585h-.274v1.6Z" transform="translate(-91.286 -49.368)" fill="#262626"/>
    <path id="Path_2163" data-name="Path 2163" d="M118.574,116.984a1.124,1.124,0,0,0,1.121,1.121h2.242a1.125,1.125,0,0,0,1.122-1.121v-1.357h-4.484Z" transform="translate(-95.536 -67.516)" fill="#262626"/>
    <path id="Path_2164" data-name="Path 2164" d="M145.553,115.622v1.346a1.124,1.124,0,0,0,1.121,1.121h2.242a1.124,1.124,0,0,0,1.121-1.121v-1.352c-.039,0-.078.006-.117.006Z" transform="translate(-106.781 -67.512)" fill="#262626"/>
    <path id="Path_2165" data-name="Path 2165" d="M161.166,72.312h-.331v1.6h-.466v-1.6h-.256a.588.588,0,0,0-.586.586v4.216a.587.587,0,0,0,.586.585h1.053a.587.587,0,0,0,.586-.585V72.9a.587.587,0,0,0-.586-.586" transform="translate(-112.689 -49.368)" fill="#262626"/>
    <path id="Path_2166" data-name="Path 2166" d="M126.394,60.255h11.553a26.177,26.177,0,0,0-11.553,0" transform="translate(-98.613 -44.136)" fill="#262626"/>
    <path id="Path_2167" data-name="Path 2167" d="M137.7,65.576h.588v-2.7a2.114,2.114,0,0,0-2.108-2.107h-3.459c.092.018.184.036.277.055H120.934c.077-.02.154-.037.231-.055h-4.428a2.114,2.114,0,0,0-2.108,2.107v2.7h.571v.465h-.571v23.1a2.114,2.114,0,0,0,2.108,2.108h.083V90.34a1.124,1.124,0,0,1,1.121-1.121h2.242A1.124,1.124,0,0,1,121.3,90.34v.909h10.506v-.92a1.124,1.124,0,0,1,1.121-1.121h2.242a1.124,1.124,0,0,1,1.121,1.121v.914a2.113,2.113,0,0,0,1.991-2.1v-23.1H137.7Zm-19.261-1.5a1.115,1.115,0,0,1,1.112-1.112h13.819a1.115,1.115,0,0,1,1.113,1.112v.351a1.116,1.116,0,0,1-1.113,1.112H119.548a1.116,1.116,0,0,1-1.112-1.112Zm-1.962,21.145a1.171,1.171,0,1,1,1.172-1.171,1.171,1.171,0,0,1-1.172,1.171m3.162.806a.806.806,0,1,1,.806-.806.806.806,0,0,1-.806.806m12.774,2.092a1.116,1.116,0,0,1-1.112,1.112h-9.68a1.116,1.116,0,0,1-1.112-1.112v-.351a1.116,1.116,0,0,1,1.112-1.112h9.68a1.116,1.116,0,0,1,1.112,1.112Zm.957-2.18a.806.806,0,1,1,.806-.806.806.806,0,0,1-.806.806m1.7-4.9a53.027,53.027,0,0,1-17.211,0c-.781-.127-1.449-.526-1.449-1.168V69.089a1.336,1.336,0,0,1,1.449-1.169h17.211a1.336,1.336,0,0,1,1.449,1.169V79.867c0,.643-.668,1.041-1.449,1.168m2.637,2.924a1.171,1.171,0,1,1-1.171-1.171,1.171,1.171,0,0,1,1.171,1.171" transform="translate(-93.405 -43.949)" fill="#262626"/>
  </g>
</svg>
