<svg xmlns="http://www.w3.org/2000/svg" width="36.851" height="29.954" viewBox="0 0 36.851 29.954">
  <g id="Group_2262" data-name="Group 2262" transform="translate(-15.089 -18.117)">
    <path id="Path_2169" data-name="Path 2169" d="M126,660.192a15.879,15.879,0,0,0-2.361-.11h-1.584v4.609h1.795a8.478,8.478,0,0,0,2.593-.255,2.155,2.155,0,0,0,1.025-.8,2.188,2.188,0,0,0,.371-1.264,2.1,2.1,0,0,0-.521-1.462,2.269,2.269,0,0,0-1.318-.721" transform="translate(-97.062 -634.513)" fill="#262626"/>
    <path id="Path_2170" data-name="Path 2170" d="M153.871,679.8l-.141-.339a.569.569,0,0,0-.525-.35h-2.267L150.25,677a1.147,1.147,0,0,0-1.091-.793h-10.5a1.147,1.147,0,0,0-1.092.793l-.687,2.116h-2.268a.568.568,0,0,0-.525.35l-.141.339a.569.569,0,0,0,.339.757l1.5.516-1.18,1.046a1.246,1.246,0,0,0-.42.932v6.253h3.432V687.59H150.2v1.717h3.432v-6.253a1.248,1.248,0,0,0-.42-.932l-1.181-1.046,1.5-.516a.569.569,0,0,0,.34-.757m-15.141,4.772h-2.64a.6.6,0,0,1-.6-.6V683.4a.6.6,0,0,1,.732-.591l2.639.571a.6.6,0,0,1-.127,1.2m-1.089-4.108,1.014-3.124h10.51l1.014,3.124H137.642Zm14.694,2.933v.571a.6.6,0,0,1-.6.6h-2.64a.6.6,0,0,1-.128-1.2l2.64-.571a.605.605,0,0,1,.732.591" transform="translate(-101.976 -641.236)" fill="#262626"/>
    <path id="Path_2171" data-name="Path 2171" d="M119.408,671.627a1.664,1.664,0,0,1,.56-1.246l1.576-1.409-1.179-.679a.76.76,0,0,1-.454-1.011l.189-.453a1.362,1.362,0,0,1,1.013-.543l2.087-.5.732-2.254a1.533,1.533,0,0,1,1.458-1.06h5.241V650.867a3.69,3.69,0,0,0-3.68-3.679H108.639a3.69,3.69,0,0,0-3.68,3.679v18.314a3.691,3.691,0,0,0,3.68,3.68h10.769Zm-4.555-9.608v6.128h-3.28V651.9h5.263a19.156,19.156,0,0,1,3.9.243,4.266,4.266,0,0,1,2.339,1.59,5.049,5.049,0,0,1,.942,3.164,5.3,5.3,0,0,1-.543,2.516,4.447,4.447,0,0,1-1.379,1.6,4.747,4.747,0,0,1-1.7.77,18.729,18.729,0,0,1-3.4.233Z" transform="translate(-89.87 -629.071)" fill="#262626"/>
  </g>
</svg>
