<svg xmlns="http://www.w3.org/2000/svg" width="30.176" height="31.047" viewBox="0 0 30.176 31.047">
  <g id="Group_2270" data-name="Group 2270" transform="translate(-17.488 -18.167)">
    <path id="Path_2231" data-name="Path 2231" d="M1572.708,106.945a3.017,3.017,0,1,0,3.012,3.012,3.029,3.029,0,0,0-3.012-3.012" transform="translate(-1546.474 -63.765)" fill="#262626"/>
    <path id="Path_2232" data-name="Path 2232" d="M1558.827,63.49v3.021h3.021l5.429,11.464-2.115,3.625a5.463,5.463,0,0,0-.3,1.5,3.031,3.031,0,0,0,3.022,3.021h18.1V83.1h-17.5a.318.318,0,0,1-.3-.3v-.147l1.355-2.563h11.17a2.761,2.761,0,0,0,2.563-1.511l5.43-9.805a.839.839,0,0,0,.3-.76,1.424,1.424,0,0,0-1.511-1.5h-22.331l-1.354-3.021Z" transform="translate(-1541.339 -45.323)" fill="#262626"/>
    <path id="Path_2233" data-name="Path 2233" d="M1599.865,106.945a3.017,3.017,0,1,0,3.012,3.012,3.029,3.029,0,0,0-3.012-3.012" transform="translate(-1557.773 -63.765)" fill="#262626"/>
  </g>
</svg>
