<svg xmlns="http://www.w3.org/2000/svg" width="35.211" height="34.566" viewBox="0 0 35.211 34.566">
  <g id="Group_2264" data-name="Group 2264" transform="translate(-16.043 -12.742)">
    <path id="Path_2224" data-name="Path 2224" d="M437.008,677.916l-2.691-5.562,1.913-3.632a2.129,2.129,0,0,0-3.946-1.6l0,.008-3.643,7.845H418.42v0h-2.362v0h-9.59a2.3,2.3,0,0,0,0,4.579h1.8l-1.53,2.945a1.146,1.146,0,1,0,2.034,1.059l2.081-4h6.335l.919,3.748a1.147,1.147,0,0,0,2.228-.548l-.785-3.2h8.84l2.081,4A1.146,1.146,0,1,0,432.5,682.5l-1.53-2.945h5a1.142,1.142,0,0,0,1.032-1.638m-5.281-.647,1.261-2.394,1.159,2.394Z" transform="translate(-385.87 -636.868)" fill="#262626"/>
    <path id="Path_2225" data-name="Path 2225" d="M413.763,660.956h2.362l-1.9-7.728,9.991-2.677a1.146,1.146,0,0,0,.811-1.4,12.626,12.626,0,0,0-14.325-9.16l-.312-1.163a1.147,1.147,0,1,0-2.215.593l.311,1.163a12.627,12.627,0,0,0-7.826,15.1,1.147,1.147,0,0,0,1.405.81l9.943-2.664Z" transform="translate(-384.187 -625.232)" fill="#262626"/>
  </g>
</svg>
