<svg xmlns="http://www.w3.org/2000/svg" width="35.178" height="35.011" viewBox="0 0 35.178 35.011">
  <g id="Group_2265" data-name="Group 2265" transform="translate(-14.987 -14.683)">
    <path id="Path_2156" data-name="Path 2156" d="M720.56,111a4.42,4.42,0,0,0-3.371,1.633,2.729,2.729,0,0,1-4.489,0,4.29,4.29,0,0,0-6.737,0,2.72,2.72,0,0,1-4.478,0,4.283,4.283,0,0,0-6.729,0,2.719,2.719,0,0,1-4.478,0A4.4,4.4,0,0,0,686.912,111a.705.705,0,1,0,0,1.406,2.907,2.907,0,0,1,2.238,1.176,4.286,4.286,0,0,0,6.734,0,2.716,2.716,0,0,1,4.474,0,4.286,4.286,0,0,0,6.732,0,2.725,2.725,0,0,1,4.484,0,4.3,4.3,0,0,0,6.74,0,2.917,2.917,0,0,1,2.245-1.177.705.705,0,1,0,0-1.406" transform="translate(-671.16 -65.522)" fill="#262626"/>
    <path id="Path_2157" data-name="Path 2157" d="M686.913,97.25a2.908,2.908,0,0,1,2.238,1.176,4.286,4.286,0,0,0,6.734,0c.2-.2.394-.4.592-.561a.808.808,0,0,0,.121-.076,2.367,2.367,0,0,1,.9-.469l.007,0c.049-.012.1-.022.15-.03l.065-.011c.034,0,.068-.008.1-.012l.1-.009.1,0,.1,0a2.513,2.513,0,0,1,1.879.823l.027.026.091.088.241.239.008.008a4.688,4.688,0,0,0,2.578,1.557,4.394,4.394,0,0,0,.782.069h0a3.957,3.957,0,0,0,2.7-1.012c.241-.206.457-.419.657-.62a6.311,6.311,0,0,1,.854-.761,2.315,2.315,0,0,1,1.385-.416l.08,0c.04,0,.082,0,.122,0l.086.008c.039,0,.078.008.116.013l.059.01a2.347,2.347,0,0,1,1.09.517.692.692,0,0,0,.111.072c.194.163.38.35.58.55a4.3,4.3,0,0,0,6.74,0,2.917,2.917,0,0,1,2.246-1.177.705.705,0,1,0,0-1.405,4.42,4.42,0,0,0-3.371,1.632,2.729,2.729,0,0,1-4.489,0c-.124-.124-.254-.254-.392-.383L718,85.976l-14.268-2.757-14.268,2.758,5.691,11.106c-.142.133-.276.266-.4.394a2.719,2.719,0,0,1-4.478,0,4.4,4.4,0,0,0-3.365-1.632.705.705,0,1,0,0,1.405m16.824-12.642a.736.736,0,0,1,.765.7V98.541a2.715,2.715,0,0,1-1.53.007V85.31a.736.736,0,0,1,.765-.7" transform="translate(-671.161 -53.555)" fill="#262626"/>
    <path id="Path_2158" data-name="Path 2158" d="M705.49,70.575l.032-.007h.006a.662.662,0,0,1,.288,0l.032.007.008,0h0L717.61,73.05v-3.9a.7.7,0,0,0-.573-.69l-2.3-.431a.694.694,0,0,0,.06-.284V64.23a.7.7,0,0,0-.587-.693l-2.222-.37V60.016a.7.7,0,0,0-1.405,0v2.917l-4.214-.7V59.314h2.107a.7.7,0,1,0,0-1.4h-5.619a.7.7,0,1,0,0,1.4h2.107V62.23l-4.214.7V60.016a.7.7,0,0,0-1.405,0v3.151l-2.222.37a.7.7,0,0,0-.587.693v3.511a.7.7,0,0,0,.06.284l-2.3.431a.7.7,0,0,0-.572.69v3.9l11.779-2.48Zm7.9.114a.7.7,0,0,1-.688.564.656.656,0,0,1-.139-.014l-3.512-.7a.7.7,0,1,1,.276-1.377l3.511.7a.7.7,0,0,1,.552.826m-15.439-2.947V64.824l7.726-1.287,7.726,1.287v2.917c0,.011,0,.022,0,.033l-7.6-1.425a.674.674,0,0,0-.258,0l-7.6,1.425c0-.011,0-.022,0-.033m4.35,2.8-3.512.7a.633.633,0,0,1-.137.014.7.7,0,0,1-.137-1.391l3.512-.7a.711.711,0,0,1,.826.551.7.7,0,0,1-.552.826" transform="translate(-673.096 -43.226)" fill="#262626"/>
  </g>
</svg>
